<svg width="1440" height="967" viewBox="0 0 1440 967" fill="none" xmlns="http://www.w3.org/2000/svg">
<mask id="mask0_44_16" style="mask-type:alpha" maskUnits="userSpaceOnUse" x="0" y="0" width="1440" height="967">
<rect width="1440" height="967" fill="#D9D9D9"/>
</mask>
<g mask="url(#mask0_44_16)">
<g opacity="0.5">
<path d="M977 795H957.5L1036 832.5H1451L1442.5 33L1321 139.5M1321 139.5H1154.5M1321 139.5V195.25M1451 832.5L1321 769M1321 769H1279M1321 769V688.5M158 139.5L0 -6V35L154.5 154.5V197.25M158 139.5L159.921 408.25M158 139.5H287.5M89 743V764.5L0 795V813L89 777.5L111.5 786L117.5 781.5L131.5 786H141V777.5H154.5L162.5 769M159.921 408.25L161.842 677L162.314 743L162.5 769M162.5 769H287.5M154.5 777.5V634M1201.5 769H1091.5M1080 769H1038.25H996.5M987.5 769H922M89 743L0 769V677M46.5 634H93V670.5L89 743M0 677L93 670.5M0 677V634H46.5M46.5 634L36 80L0 57V47.5L82 108M72.5 112L48 93.5L50 234L82 251V256L50 240V363L82 374.5V377L50 367.5V490.5L85.5 499.5V505.5L50 496.5L53 618.5H89.5M1279 967L1201.5 927M1008.5 876.5H1442L1460.5 898L1479 919.5L1201.5 927M1201.5 927H470.5M194 876.5L36 967H154.5L223.5 927H470.5M194 876.5H53M194 876.5H512M53 876.5L0 919.5V876.5H53ZM512 876.5L556.5 832.5H0L59.04 805.5M512 876.5L491.25 901.75M687 795V769M687 795H481M687 795H884.5L1008.5 876.5M687 769H612.5M687 769H781.5M512 769L481 795M512 769H454.5M512 769H612.5M481 795H82L59.04 805.5M851 832.5L817 805.5H694.5M59.04 805.5H694.5M1008.5 876.5H704.5L694.5 805.5M470.5 927L491.25 901.75M491.25 901.75L1460.5 898M1154.5 139.5H1038.25M1154.5 139.5V686.848M162.314 743H994.5M161.842 677L961 684.928M1321 688.5V634M1321 688.5L1234 687.637M1321 634V585M1321 634H1259M154.5 634V576M154.5 634H956M154.5 576V520M154.5 576L1007.5 582.581M1321 585V520M1321 585L1223 584.244M1321 520H154.5M1321 520V467M154.5 520V467M154.5 467H1321M154.5 467V356.5M1321 467V411M1321 411L159.921 408.25M1321 411V356.5M154.5 356.5H1321M154.5 356.5V296.5M1321 356.5V296.5M1321 296.5H154.5M1321 296.5V251M154.5 296.5V240M154.5 240L1321 251M154.5 240V197.25M1321 251V195.25M1321 195.25L154.5 197.25M287.5 139.5V769M287.5 139.5H454.5M287.5 769H454.5M454.5 769V139.5M454.5 139.5H612.5M612.5 139.5V769M612.5 139.5H781.5M781.5 769V139.5M781.5 769H922M781.5 139.5H922M922 139.5V769M922 139.5H1038.25M1038.25 139.5V568.5M1084 743H1154.5V686.848M1073 743H1004M1116.5 686.471L1154.5 686.848M1123.5 634H1166.5M1078.5 583.129L1193.5 584.016M6.5 66L30 80L33.5 226.5L6.5 213.5V66ZM6.5 221L33.5 233L36 356.5L6.5 344.5V221ZM6.5 350.5L36 363L39.5 487.5L6.5 477.5V350.5ZM6.5 484L39.5 494L43 618.5H6.5V484Z" stroke="#87715D"/>
<path d="M1206 738.5C1219.34 743.333 1254.5 748.2 1284.5 741M1206 738.5C1192.67 733.667 1200.77 729.788 1215.5 729.5M1286.5 744C1287.83 745.667 1289.7 749.2 1286.5 750C1285.73 750.194 1283.73 750.429 1281 750.682C1269.61 751.735 1245.32 753.092 1242.5 753H1229.78L1218.5 750C1213.5 749 1203 746.4 1201 744C1199 741.6 1198.5 736.667 1198.5 734.5L1206 738.5M1215.5 729.5C1216.17 722.333 1218.8 707.4 1224 705C1227 703.616 1228.83 703.509 1229.78 703.795M1215.5 729.5C1215.5 746.3 1223.5 758.833 1227.5 763C1234.37 759.645 1247 748.391 1244.87 729.5M1230 705C1228.5 705 1240 701.5 1244.5 727C1244.65 727.848 1244.77 728.681 1244.87 729.5M1230 705C1229.93 704.606 1229.86 704.204 1229.78 703.795M1230 705C1230.81 705 1230.89 704.129 1229.78 703.795M1223.78 669C1222.23 659.414 1220.79 649.89 1219.79 642C1218.7 633.34 1218.12 626.648 1218.5 624C1220 613.5 1229.5 617.5 1224 595C1218.5 572.5 1210 568 1206 568C1202 568 1191.5 580 1192 587.5C1192.5 595 1195 616 1202 619C1209 622 1208.5 627 1211 624C1213.5 621 1206 581.5 1206 579.5M1231.5 632C1235.09 628.652 1239.93 626.677 1244.5 625.527C1249.49 624.272 1254.15 624 1256.5 624C1261 624 1263 614.5 1260.5 611C1258 607.5 1248.5 611.5 1241.5 611C1235.9 610.6 1224.7 631.5 1219.79 642M1244.5 625.527C1244.5 627.018 1242.8 631.4 1236 637C1232.42 639.952 1229.88 646.37 1228.18 653C1226.66 658.945 1225.82 665.06 1225.5 669M1271.5 624C1269.5 626.167 1263.1 631.8 1253.5 637C1243.9 642.2 1232.62 649.833 1228.18 653M1225.5 687.5C1222.41 684.408 1216.33 679.404 1209.5 676.035M1209.5 676.035C1205.28 673.956 1200.78 672.5 1196.5 672.5C1182.5 672.5 1173.5 672 1168 677C1162.5 682 1157 698 1158 703C1159 708 1208 684.466 1211 681.5C1213.4 679.127 1211 676.868 1209.5 676.035ZM1229.78 703.795C1228.33 703.468 1226.36 703.068 1224 702.644M1229.78 703.795C1228.14 694.866 1225.99 682.642 1224 670.395M1224 702.644C1215.96 701.195 1203.46 699.474 1192 699.5C1173.5 699.541 1158 721.5 1158 727C1158 731.4 1161 733.833 1162.5 734.5C1177 726.667 1206.7 710.4 1209.5 708C1212.3 705.6 1216.67 703.667 1218.5 703L1224 702.644ZM1223.78 669C1222.61 668.422 1221.26 667.729 1219.79 666.948M1223.78 669C1223.85 669.465 1223.93 669.93 1224 670.395M1219.79 666.948C1211.13 662.327 1198.56 654.633 1196.5 649.5C1193.5 642 1192.5 642 1196.5 642C1200.5 642 1208.5 643 1211 649.5C1213 654.7 1217.7 663.299 1219.79 666.948ZM1224 670.395C1221.17 672.275 1213.6 674.218 1206 666.948C1198.4 659.679 1199.5 659.287 1201 660L1224 670.395ZM1261.5 729.5H1244.87M1201 746.5C1200.4 758.167 1197.95 776.625 1209.5 789C1218.95 799.127 1227.66 797.988 1241.5 798.5C1255.63 799.023 1264.7 799.656 1274 789C1284.4 777.077 1280.5 762.454 1281 750.682M1006.98 727L1006.5 744L1061.5 702.644L1070.5 699.5L1099.5 798.5L1090.5 802L1068.61 727L1061.5 702.644M1014.5 697.441C1011.91 697.146 1009.23 696.819 1006.5 696.46M1014.5 697.441L1070.5 746.5L1068.61 727M1014.5 697.441C1021.13 698.195 1027.2 698.738 1032 699.077M1014.5 697.441L1006.98 727M1006.5 696.46C979.584 692.913 971.243 692.717 958.002 677C944.759 661.281 964.501 632 958 601.5C965.501 601.5 980.001 601.5 990 595C1008.39 583.048 1003.5 571.5 1041 571.5C1078.5 571.5 1071.05 581.575 1088.5 595C1101.5 605 1124 601.5 1124 603.5C1124 605.5 1122.63 613.5 1124 624C1127 647 1130.6 676.7 1113 687.5C1093.09 699.718 1061.76 698.564 1045.5 699.374M1006.5 696.46L981.001 802L987.501 803.5L1006.98 727M1068.61 727L1032 699.077M1032 699.077C1036.01 699.36 1037.48 699.51 1041 699.5C1042.76 699.495 1043.79 699.459 1045.5 699.374M1006.98 727L1045.5 699.374M1230 695C1232.17 687.333 1239.6 671.7 1252 670.5C1267.5 669 1271.5 672 1271.5 667.5C1271.5 663 1262.5 658 1253.5 660C1244.5 662 1228.18 668.5 1228.18 672.5C1228.18 675.7 1229.4 688.833 1230 695ZM1260.5 637C1266.5 638.5 1268.5 638.5 1264.5 644.5C1261.3 649.3 1255.83 655.5 1253.5 658L1225.5 670.5C1229.17 660.167 1241.3 639 1260.5 637ZM1218.5 637C1209.34 628.824 1188.5 613.778 1178.5 619C1166 625.527 1162.5 624 1162.5 628C1162.5 632 1180 637 1187.5 637C1195 637 1212.5 642 1215.5 642C1217.9 642 1218.5 638.667 1218.5 637ZM1242.5 710.5C1247.83 708.667 1261.1 706.1 1271.5 710.5C1284.5 716 1293.5 718 1295.5 727C1297.5 736 1299.5 741.5 1297.5 744C1295.5 746.5 1265 731.5 1260 727C1256 723.4 1246.67 714.5 1242.5 710.5Z" stroke="#87715D"/>
</g>
</g>
</svg>
