<svg viewBox="0 0 287 107" fill="none" xmlns="http://www.w3.org/2000/svg">
<g filter="url(#filter0_g_494_667)">
<path d="M66.2464 59.4601H67.4644V75.1201H66.2464C62.6504 75.1201 59.1124 74.0471 55.6324 71.9011C52.3844 74.0471 48.9044 75.1201 45.1924 75.1201H9.00039V59.4601H16.9174L19.2664 56.2411L17.6134 13.6981L31.5334 13.0021L32.5774 39.7111C36.3474 36.2311 40.5524 34.4911 45.1924 34.4911C50.7024 34.4911 55.3134 36.5211 59.0254 40.5811C62.7374 44.5831 64.5934 49.5421 64.5934 55.4581C64.5934 56.8501 64.4774 58.0971 64.2454 59.1991C64.7674 59.3731 65.4344 59.4601 66.2464 59.4601ZM45.1924 59.4601C46.5844 59.4601 47.8314 59.0251 48.9334 58.1551C50.0934 57.2851 50.6734 56.3861 50.6734 55.4581C50.6734 53.8341 50.1804 52.5581 49.1944 51.6301C48.2084 50.6441 46.8744 50.1511 45.1924 50.1511C43.7424 50.1511 42.3214 50.7601 40.9294 51.9781C39.5954 53.1961 37.5654 55.6901 34.8394 59.4601H45.1924ZM66.5767 75.1201V59.4601H93.5467V75.1201H66.5767ZM92.6597 75.1201V59.4601H106.319C109.045 59.4601 110.756 59.0541 111.452 58.2421C112.206 57.4301 112.264 55.8931 111.626 53.6311L108.233 40.6681L121.631 36.6661L125.285 50.4121C127.141 57.3721 126.242 63.2301 122.588 67.9861C118.934 72.7421 113.511 75.1201 106.319 75.1201H92.6597ZM93.0947 96.3481L84.9167 88.1701L93.0947 79.9051L101.36 88.1701L93.0947 96.3481ZM111.974 96.3481L103.796 88.1701L111.974 79.9051L120.239 88.1701L111.974 96.3481ZM138.917 75.5551L136.568 13.6981L150.488 13.0021L152.837 74.9461L138.917 75.5551ZM186.24 59.4601H186.675V75.1201H186.24H185.457C185.341 80.9201 183.253 85.4441 179.193 88.6921C175.191 91.9401 168.695 94.8111 159.705 97.3051L156.051 82.1671C163.243 80.1951 167.68 78.6581 169.362 77.5561C171.102 76.4541 171.769 74.5111 171.363 71.7271L167.883 46.7581L181.629 44.6701L182.586 51.4561C182.992 53.8921 183.398 55.7191 183.804 56.9371C184.21 58.1551 184.558 58.8801 184.848 59.1121C185.196 59.3441 185.66 59.4601 186.24 59.4601ZM185.777 75.1201V59.4601H212.747V75.1201H185.777ZM253.794 15.5251L247.269 22.1371L240.657 15.5251L247.269 9.00011L253.794 15.5251ZM246.051 29.5321L237.786 37.7101L229.608 29.5321L237.786 21.2671L246.051 29.5321ZM256.578 37.7101L248.4 29.5321L256.578 21.2671L264.843 29.5321L256.578 37.7101ZM275.022 49.6291C276.936 56.6471 276.24 62.6501 272.934 67.6381C269.628 72.6261 264.611 75.1201 257.883 75.1201C253.765 75.1201 250.314 73.9021 247.53 71.4661C244.514 73.9021 240.976 75.1201 236.916 75.1201C233.03 75.1201 229.608 73.8441 226.65 71.2921C223.692 73.8441 220.125 75.1201 215.949 75.1201H211.86V59.4601H215.949C217.747 59.4601 218.878 59.2861 219.342 58.9381C219.864 58.5321 220.125 57.7491 220.125 56.5891V45.8011H233.175V56.5891C233.233 57.5751 233.523 58.3001 234.045 58.7641C234.567 59.2281 235.524 59.4601 236.916 59.4601C238.656 59.4601 239.787 59.2861 240.309 58.9381C240.831 58.5321 241.092 57.7491 241.092 56.5891V45.8011H254.142V56.5891C254.142 57.6911 254.374 58.4451 254.838 58.8511C255.36 59.2571 256.375 59.4601 257.883 59.4601C259.971 59.4601 261.247 59.0831 261.711 58.3291C262.233 57.5171 262.204 55.9511 261.624 53.6311L258.144 40.6681L271.542 36.6661L275.022 49.6291Z" fill="white"/>
</g>
<defs>
<filter id="filter0_g_494_667" x="0" y="0" width="286.893" height="106.305" filterUnits="userSpaceOnUse" color-interpolation-filters="sRGB">
<feFlood flood-opacity="0" result="BackgroundImageFix"/>
<feBlend mode="normal" in="SourceGraphic" in2="BackgroundImageFix" result="shape"/>
<feTurbulence type="fractalNoise" baseFrequency="0.2222222238779068 0.2222222238779068" numOctaves="3" seed="6674" />
<feDisplacementMap in="shape" scale="18" xChannelSelector="R" yChannelSelector="G" result="displacedImage" width="100%" height="100%" />
<feMerge result="effect1_texture_494_667">
<feMergeNode in="displacedImage"/>
</feMerge>
</filter>
</defs>
</svg>
