<svg viewBox="0 0 19 15" fill="none" xmlns="http://www.w3.org/2000/svg">
<path d="M9.08333 9.1667C8.66912 9.1667 8.33333 9.50248 8.33333 9.9167C8.33333 10.3309 8.66912 10.6667 9.08333 10.6667V9.9167V9.1667ZM12.3333 7.4167C12.3333 7.00248 11.9975 6.6667 11.5833 6.6667C11.1691 6.6667 10.8333 7.00248 10.8333 7.4167H11.5833H12.3333ZM1.76722 5.85453L1.15797 5.41715V5.41715L1.76722 5.85453ZM1.76704 8.97861L2.3763 8.54123L2.3763 8.54123L1.76704 8.97861ZM3.90664 11.494L4.46959 10.9985L4.45058 10.9769L4.42997 10.9568L3.90664 11.494ZM14.1675 3.25003L13.6489 3.79177L13.6702 3.81216L13.693 3.83082L14.1675 3.25003ZM1.03076 7.41668L0.280763 7.41667L1.03076 7.41668ZM16.3994 8.97886L17.0087 9.41625V9.41625L16.3994 8.97886ZM16.3994 5.85446L15.7901 6.29185L15.7901 6.29185L16.3994 5.85446ZM16.1762 4.3299C15.9141 4.00917 15.4416 3.96166 15.1209 4.22378C14.8002 4.4859 14.7527 4.95839 15.0148 5.27911L15.5955 4.80451L16.1762 4.3299ZM5.77087 12.092C5.43444 11.8503 4.96582 11.9272 4.72418 12.2636C4.48254 12.6 4.55938 13.0687 4.8958 13.3103L5.33333 12.7011L5.77087 12.092ZM17.1359 7.41669L16.3859 7.41669L17.1359 7.41669ZM0.281479 13.4977C-0.0419677 13.7565 -0.0944088 14.2284 0.164348 14.5519C0.423106 14.8753 0.895075 14.9278 1.21852 14.669L0.75 14.0834L0.281479 13.4977ZM17.8852 1.33568C18.2086 1.07692 18.2611 0.604956 18.0023 0.281509C17.7436 -0.0419372 17.2716 -0.0943782 16.9481 0.164379L17.4167 0.750031L17.8852 1.33568ZM14.2289 3.30021L14.6975 3.88586V3.88586L14.2289 3.30021ZM3.93971 11.5316L4.40823 12.1172V12.1172L3.93971 11.5316ZM9.08333 4.9167V4.1667C7.28841 4.1667 5.83333 5.62177 5.83333 7.4167H6.58333H7.33333C7.33333 6.4502 8.11683 5.6667 9.08333 5.6667V4.9167ZM6.58333 7.4167H5.83333C5.83333 8.17996 6.09738 8.88362 6.53854 9.43836L7.12555 8.97155L7.71256 8.50473C7.47487 8.20584 7.33333 7.82883 7.33333 7.4167H6.58333ZM11.0351 5.85434L11.6203 5.38528C11.026 4.6437 10.1101 4.1667 9.08333 4.1667V4.9167V5.6667C9.63569 5.6667 10.128 5.92173 10.4499 6.3234L11.0351 5.85434ZM9.08333 9.9167V10.6667C10.8783 10.6667 12.3333 9.21162 12.3333 7.4167H11.5833H10.8333C10.8333 8.3832 10.0498 9.1667 9.08333 9.1667V9.9167ZM9.08333 0.750031V3.05176e-05C7.25794 3.05176e-05 5.61722 0.902319 4.29725 1.98308C2.9687 3.07086 1.88471 4.40482 1.15797 5.41715L1.76722 5.85453L2.37648 6.29192C3.06429 5.33383 4.06055 4.11554 5.24752 3.14367C6.44307 2.16479 7.75312 1.50003 9.08333 1.50003V0.750031ZM1.76704 8.97861L1.15778 9.41599C1.7121 10.1882 2.47053 11.1421 3.38331 12.0313L3.90664 11.494L4.42997 10.9568C3.59907 10.1474 2.89734 9.26704 2.3763 8.54123L1.76704 8.97861ZM14.1675 3.25003L14.6862 2.70829C13.2351 1.31901 11.2913 3.05176e-05 9.08333 3.05176e-05V0.750031V1.50003C10.7034 1.50003 12.2861 2.48705 13.6489 3.79177L14.1675 3.25003ZM1.76722 5.85453L1.15797 5.41715C0.701785 6.05258 0.280769 6.59534 0.280763 7.41667L1.03076 7.41668L1.78076 7.41668C1.78077 7.16542 1.85072 7.02427 2.37648 6.29192L1.76722 5.85453ZM1.76704 8.97861L2.3763 8.54123C1.85068 7.80905 1.78076 7.66795 1.78076 7.41668L1.03076 7.41668L0.280763 7.41667C0.280757 8.238 0.70169 8.78066 1.15778 9.41599L1.76704 8.97861ZM9.08333 14.0834V14.8334C10.9087 14.8334 12.5495 13.9311 13.8694 12.8503C15.198 11.7625 16.282 10.4286 17.0087 9.41625L16.3994 8.97886L15.7902 8.54148C15.1024 9.49957 14.1061 10.7179 12.9191 11.6897C11.7236 12.6686 10.4135 13.3334 9.08333 13.3334V14.0834ZM16.3994 5.85446L17.0086 5.41708C16.7676 5.08132 16.4888 4.71232 16.1762 4.3299L15.5955 4.80451L15.0148 5.27911C15.305 5.63423 15.5648 5.97803 15.7901 6.29185L16.3994 5.85446ZM5.33333 12.7011L4.8958 13.3103C6.09491 14.1716 7.52069 14.8334 9.08333 14.8334V14.0834V13.3334C7.94829 13.3334 6.82609 12.8499 5.77087 12.092L5.33333 12.7011ZM16.3994 8.97886L17.0087 9.41625C17.4649 8.7808 17.8859 8.23804 17.8859 7.41669L17.1359 7.41669L16.3859 7.41669C16.3859 7.66796 16.316 7.80911 15.7902 8.54148L16.3994 8.97886ZM16.3994 5.85446L15.7901 6.29185C16.3159 7.02427 16.3859 7.16543 16.3859 7.41669L17.1359 7.41669L17.8859 7.41669C17.8859 6.59534 17.4649 6.05255 17.0086 5.41708L16.3994 5.85446ZM14.2289 3.30021L14.6975 3.88586L17.8852 1.33568L17.4167 0.750031L16.9481 0.164379L13.7604 2.71456L14.2289 3.30021ZM14.1675 3.25003L13.693 3.83082L13.7544 3.881L14.2289 3.30021L14.7035 2.71942L14.6421 2.66924L14.1675 3.25003ZM0.75 14.0834L1.21852 14.669L4.40823 12.1172L3.93971 11.5316L3.47119 10.9459L0.281479 13.4977L0.75 14.0834ZM3.93971 11.5316L4.40823 12.1172L14.6975 3.88586L14.2289 3.30021L13.7604 2.71456L3.47119 10.9459L3.93971 11.5316ZM3.90664 11.494L3.3437 11.9896L3.37676 12.0272L3.93971 11.5316L4.50265 11.036L4.46959 10.9985L3.90664 11.494Z" fill="currentColor"/>
</svg>
