<svg viewBox="0 0 108 19" fill="none" xmlns="http://www.w3.org/2000/svg">
<path d="M12.6008 5.32229L10.1582 0.35369C9.90941 -0.117897 9.21505 -0.117897 8.96623 0.35369L6.52362 5.32229C6.41289 5.5164 6.24614 5.65579 6.02467 5.68315L0.557123 6.48823C0.0308247 6.57161 -0.191942 7.20994 0.196268 7.59946L4.16568 11.4581C4.33112 11.6249 4.38714 11.819 4.35979 12.0405L3.41531 17.5093C3.30458 18.0369 3.8882 18.4538 4.35979 18.2037L9.27107 15.6217C9.46517 15.5109 9.68664 15.5109 9.88074 15.6217L14.7933 18.2037C15.2649 18.4538 15.8199 18.0369 15.7365 17.5093L14.7933 12.0405C14.7647 11.819 14.8207 11.5962 14.9874 11.4581L18.9555 7.59946C19.3438 7.2386 19.1223 6.57161 18.5947 6.48823L13.0998 5.68315C12.8783 5.65579 12.6842 5.5164 12.6008 5.32229Z" fill="#FFD738"/>
<path d="M34.6008 5.32229L32.1582 0.35369C31.9094 -0.117897 31.2151 -0.117897 30.9662 0.35369L28.5236 5.32229C28.4129 5.5164 28.2461 5.65579 28.0247 5.68315L22.5571 6.48823C22.0308 6.57161 21.8081 7.20994 22.1963 7.59946L26.1657 11.4581C26.3311 11.6249 26.3871 11.819 26.3598 12.0405L25.4153 17.5093C25.3046 18.0369 25.8882 18.4538 26.3598 18.2037L31.2711 15.6217C31.4652 15.5109 31.6866 15.5109 31.8807 15.6217L36.7933 18.2037C37.2649 18.4538 37.8199 18.0369 37.7365 17.5093L36.7933 12.0405C36.7647 11.819 36.8207 11.5962 36.9874 11.4581L40.9555 7.59946C41.3438 7.2386 41.1223 6.57161 40.5947 6.48823L35.0998 5.68315C34.8783 5.65579 34.6842 5.5164 34.6008 5.32229Z" fill="#FFD738"/>
<path d="M100.601 5.32229L98.1582 0.35369C97.9094 -0.117897 97.2151 -0.117897 96.9662 0.35369L94.5236 5.32229C94.4129 5.5164 94.2462 5.65579 94.0247 5.68315L88.5571 6.48823C88.0308 6.57161 87.8081 7.20994 88.1963 7.59946L92.1657 11.4581C92.3311 11.6249 92.3872 11.819 92.3598 12.0405L91.4153 17.5093C91.3046 18.0369 91.8882 18.4538 92.3598 18.2037L97.2711 15.6217C97.4652 15.5109 97.6867 15.5109 97.8808 15.6217L102.793 18.2037C103.265 18.4538 103.82 18.0369 103.737 17.5093L102.793 12.0405C102.765 11.819 102.821 11.5962 102.987 11.4581L106.956 7.59946C107.344 7.2386 107.122 6.57161 106.595 6.48823L101.1 5.68315C100.878 5.65579 100.684 5.5164 100.601 5.32229Z" fill="#FFD738"/>
<path d="M78.6008 5.32229L76.1582 0.35369C75.9094 -0.117897 75.2151 -0.117897 74.9662 0.35369L72.5236 5.32229C72.4129 5.5164 72.2461 5.65579 72.0247 5.68315L66.5571 6.48823C66.0308 6.57161 65.8081 7.20994 66.1963 7.59946L70.1657 11.4581C70.3311 11.6249 70.3871 11.819 70.3598 12.0405L69.4153 17.5093C69.3046 18.0369 69.8882 18.4538 70.3598 18.2037L75.2711 15.6217C75.4652 15.5109 75.6866 15.5109 75.8807 15.6217L80.7933 18.2037C81.2649 18.4538 81.8199 18.0369 81.7365 17.5093L80.7933 12.0405C80.7647 11.819 80.8207 11.5962 80.9874 11.4581L84.9555 7.59946C85.3438 7.2386 85.1223 6.57161 84.5947 6.48823L79.0998 5.68315C78.8783 5.65579 78.6842 5.5164 78.6008 5.32229Z" fill="#FFD738"/>
<path d="M56.6008 5.32229L54.1582 0.35369C53.9094 -0.117897 53.2151 -0.117897 52.9662 0.35369L50.5236 5.32229C50.4129 5.5164 50.2461 5.65579 50.0247 5.68315L44.5571 6.48823C44.0308 6.57161 43.8081 7.20994 44.1963 7.59946L48.1657 11.4581C48.3311 11.6249 48.3871 11.819 48.3598 12.0405L47.4153 17.5093C47.3046 18.0369 47.8882 18.4538 48.3598 18.2037L53.2711 15.6217C53.4652 15.5109 53.6866 15.5109 53.8807 15.6217L58.7933 18.2037C59.2649 18.4538 59.8199 18.0369 59.7365 17.5093L58.7933 12.0405C58.7647 11.819 58.8207 11.5962 58.9874 11.4581L62.9555 7.59946C63.3438 7.2386 63.1223 6.57161 62.5947 6.48823L57.0998 5.68315C56.8783 5.65579 56.6842 5.5164 56.6008 5.32229Z" fill="#FFD738"/>
</svg>
