<svg viewBox="0 0 108 19" fill="none" xmlns="http://www.w3.org/2000/svg">
<path d="M9.56229 0.5C9.49189 0.5 9.43866 0.532051 9.40994 0.583984L6.97244 5.54297L6.96561 5.55664L6.95779 5.57031C6.79259 5.85978 6.50871 6.12173 6.09744 6.17676V6.17773L6.09061 6.17871C6.08906 6.17891 6.08727 6.1795 6.08572 6.17969V6.17871L0.635529 6.98145V6.98242C0.502265 7.00353 0.457862 7.1529 0.550568 7.24609L4.51443 11.0996L4.52029 11.1064C4.80267 11.3911 4.90069 11.7412 4.85623 12.1016L4.85428 12.1133L4.85233 12.126L3.90799 17.5947L3.90604 17.6035L3.90506 17.6123C3.89571 17.6572 3.90924 17.7046 3.96365 17.7441C4.02018 17.785 4.07984 17.7861 4.12576 17.7617L4.12674 17.7607L9.03885 15.1787H9.03983C9.34035 15.0135 9.68531 14.9941 9.99588 15.1221L10.1131 15.1787L15.0262 17.7607L15.0271 17.7617C15.0734 17.7863 15.1249 17.7837 15.1756 17.7461C15.2277 17.7072 15.2528 17.6492 15.243 17.5869L14.3006 12.125L14.2986 12.1152L14.2976 12.1045C14.256 11.7824 14.3265 11.381 14.6404 11.1006L14.6385 11.0996L18.6072 7.24121L18.615 7.2334L18.6365 7.20801C18.6538 7.17964 18.6586 7.14244 18.6433 7.0957C18.6224 7.03185 18.5754 6.99186 18.5174 6.98242L13.0398 6.17871L13.0388 6.17969C13.0373 6.1795 13.0355 6.17793 13.034 6.17773H13.0271L13.0281 6.17676C12.657 6.12739 12.3163 5.89589 12.1541 5.54199L12.1521 5.54297L9.71561 0.586914C9.68726 0.533397 9.63388 0.500017 9.56229 0.5Z" stroke="#FFD738"/>
<path d="M31.5623 0.5C31.4919 0.5 31.4387 0.532051 31.4099 0.583984L28.9724 5.54297L28.9656 5.55664L28.9578 5.57031C28.7926 5.85978 28.5087 6.12173 28.0974 6.17676V6.17773L28.0906 6.17871C28.0891 6.17891 28.0873 6.1795 28.0857 6.17969V6.17871L22.6355 6.98145V6.98242C22.5023 7.00353 22.4579 7.1529 22.5506 7.24609L26.5144 11.0996L26.5203 11.1064C26.8027 11.3911 26.9007 11.7412 26.8562 12.1016L26.8543 12.1133L26.8523 12.126L25.908 17.5947L25.906 17.6035L25.9051 17.6123C25.8957 17.6572 25.9092 17.7046 25.9637 17.7441C26.0202 17.785 26.0798 17.7861 26.1258 17.7617L26.1267 17.7607L31.0388 15.1787H31.0398C31.3404 15.0135 31.6853 14.9941 31.9959 15.1221L32.1131 15.1787L37.0262 17.7607L37.0271 17.7617C37.0734 17.7863 37.1249 17.7837 37.1756 17.7461C37.2277 17.7072 37.2528 17.6492 37.243 17.5869L36.3006 12.125L36.2986 12.1152L36.2976 12.1045C36.256 11.7824 36.3265 11.381 36.6404 11.1006L36.6385 11.0996L40.6072 7.24121L40.615 7.2334L40.6365 7.20801C40.6538 7.17964 40.6586 7.14244 40.6433 7.0957C40.6224 7.03185 40.5754 6.99186 40.5174 6.98242L35.0398 6.17871L35.0388 6.17969C35.0373 6.1795 35.0355 6.17793 35.034 6.17773H35.0271L35.0281 6.17676C34.657 6.12739 34.3163 5.89589 34.1541 5.54199L34.1521 5.54297L31.7156 0.586914C31.6873 0.533397 31.6339 0.500017 31.5623 0.5Z" stroke="#FFD738"/>
<path d="M97.5623 0.5C97.4919 0.5 97.4387 0.532051 97.41 0.583984L94.9725 5.54297L94.9656 5.55664L94.9578 5.57031C94.7926 5.85978 94.5087 6.12173 94.0975 6.17676V6.17773L94.0906 6.17871C94.0891 6.17891 94.0873 6.1795 94.0857 6.17969V6.17871L88.6355 6.98145V6.98242C88.5023 7.00353 88.4579 7.1529 88.5506 7.24609L92.5145 11.0996L92.5203 11.1064C92.8027 11.3911 92.9007 11.7412 92.8562 12.1016L92.8543 12.1133L92.8523 12.126L91.908 17.5947L91.9061 17.6035L91.9051 17.6123C91.8957 17.6572 91.9093 17.7046 91.9637 17.7441C92.0202 17.785 92.0799 17.7861 92.1258 17.7617L92.1268 17.7607L97.0389 15.1787H97.0398C97.3404 15.0135 97.6853 14.9941 97.9959 15.1221L98.1131 15.1787L103.026 17.7607L103.027 17.7617C103.073 17.7863 103.125 17.7837 103.176 17.7461C103.228 17.7072 103.253 17.6492 103.243 17.5869L102.301 12.125L102.299 12.1152L102.298 12.1045C102.256 11.7824 102.327 11.381 102.64 11.1006L102.638 11.0996L106.607 7.24121L106.615 7.2334L106.637 7.20801C106.654 7.17964 106.659 7.14244 106.643 7.0957C106.622 7.03185 106.575 6.99186 106.517 6.98242L101.04 6.17871L101.039 6.17969C101.037 6.1795 101.036 6.17793 101.034 6.17773H101.027L101.028 6.17676C100.657 6.12739 100.316 5.89589 100.154 5.54199L100.152 5.54297L97.7156 0.586914C97.6873 0.533397 97.6339 0.500017 97.5623 0.5Z" stroke="#FFD738"/>
<path d="M75.5623 0.5C75.4919 0.5 75.4387 0.532051 75.4099 0.583984L72.9724 5.54297L72.9656 5.55664L72.9578 5.57031C72.7926 5.85978 72.5087 6.12173 72.0974 6.17676V6.17773L72.0906 6.17871C72.0891 6.17891 72.0873 6.1795 72.0857 6.17969V6.17871L66.6355 6.98145V6.98242C66.5023 7.00353 66.4579 7.1529 66.5506 7.24609L70.5144 11.0996L70.5203 11.1064C70.8027 11.3911 70.9007 11.7412 70.8562 12.1016L70.8543 12.1133L70.8523 12.126L69.908 17.5947L69.906 17.6035L69.9051 17.6123C69.8957 17.6572 69.9092 17.7046 69.9637 17.7441C70.0202 17.785 70.0798 17.7861 70.1258 17.7617L70.1267 17.7607L75.0388 15.1787H75.0398C75.3404 15.0135 75.6853 14.9941 75.9959 15.1221L76.1131 15.1787L81.0262 17.7607L81.0271 17.7617C81.0734 17.7863 81.1249 17.7837 81.1756 17.7461C81.2277 17.7072 81.2528 17.6492 81.243 17.5869L80.3006 12.125L80.2986 12.1152L80.2976 12.1045C80.256 11.7824 80.3265 11.381 80.6404 11.1006L80.6385 11.0996L84.6072 7.24121L84.615 7.2334L84.6365 7.20801C84.6538 7.17964 84.6586 7.14244 84.6433 7.0957C84.6224 7.03185 84.5754 6.99186 84.5174 6.98242L79.0398 6.17871L79.0388 6.17969C79.0373 6.1795 79.0355 6.17793 79.034 6.17773H79.0271L79.0281 6.17676C78.657 6.12739 78.3163 5.89589 78.1541 5.54199L78.1521 5.54297L75.7156 0.586914C75.6873 0.533397 75.6339 0.500017 75.5623 0.5Z" stroke="#FFD738"/>
<path d="M53.5623 0.5C53.4919 0.5 53.4387 0.532051 53.4099 0.583984L50.9724 5.54297L50.9656 5.55664L50.9578 5.57031C50.7926 5.85978 50.5087 6.12173 50.0974 6.17676V6.17773L50.0906 6.17871C50.0891 6.17891 50.0873 6.1795 50.0857 6.17969V6.17871L44.6355 6.98145V6.98242C44.5023 7.00353 44.4579 7.1529 44.5506 7.24609L48.5144 11.0996L48.5203 11.1064C48.8027 11.3911 48.9007 11.7412 48.8562 12.1016L48.8543 12.1133L48.8523 12.126L47.908 17.5947L47.906 17.6035L47.9051 17.6123C47.8957 17.6572 47.9092 17.7046 47.9637 17.7441C48.0202 17.785 48.0798 17.7861 48.1258 17.7617L48.1267 17.7607L53.0388 15.1787H53.0398C53.3404 15.0135 53.6853 14.9941 53.9959 15.1221L54.1131 15.1787L59.0262 17.7607L59.0271 17.7617C59.0734 17.7863 59.1249 17.7837 59.1756 17.7461C59.2277 17.7072 59.2528 17.6492 59.243 17.5869L58.3006 12.125L58.2986 12.1152L58.2976 12.1045C58.256 11.7824 58.3265 11.381 58.6404 11.1006L58.6385 11.0996L62.6072 7.24121L62.615 7.2334L62.6365 7.20801C62.6538 7.17964 62.6586 7.14244 62.6433 7.0957C62.6224 7.03185 62.5754 6.99186 62.5174 6.98242L57.0398 6.17871L57.0388 6.17969C57.0373 6.1795 57.0355 6.17793 57.034 6.17773H57.0271L57.0281 6.17676C56.657 6.12739 56.3163 5.89589 56.1541 5.54199L56.1521 5.54297L53.7156 0.586914C53.6873 0.533397 53.6339 0.500017 53.5623 0.5Z" stroke="#FFD738"/>
</svg>
