<svg viewBox="0 0 95 95" fill="none" xmlns="http://www.w3.org/2000/svg">
<mask id="mask0_506_4157" style="mask-type:luminance" maskUnits="userSpaceOnUse" x="0" y="0" width="95" height="95">
<path d="M95 0H0V95H95V0Z" fill="white"/>
</mask>
<g mask="url(#mask0_506_4157)">
<path d="M6.20733 62.8065C5.20858 61.9887 4.55802 60.7632 4.55802 59.375C4.55802 58.8516 4.66454 58.3579 4.83062 57.8906H1.58927C0.769203 57.8906 0.104897 57.2263 0.104897 56.4062V34.1406C0.104897 33.3206 0.769203 32.6562 1.58927 32.6562H28.308C29.127 32.6562 29.7924 33.3206 29.7924 34.1406V54.9219H33.619C32.9398 53.9472 32.5309 52.7869 32.4301 51.5362C32.3339 51.4938 32.2332 51.4652 32.1427 51.4091C31.6032 51.0746 31.2321 50.5524 31.0981 49.9385C28.9448 40.1171 34.8801 22.9998 36.3633 18.9613C35.9945 18.4997 35.6738 17.9935 35.4333 17.4322L34.8171 15.9937C32.6237 14.3364 31.2756 11.7456 31.2756 8.9074C31.2768 4.0786 35.3554 0 40.183 0C45.0943 0 49.0893 3.99498 49.0893 8.90625C49.0893 9.47893 48.7548 9.96112 48.2795 10.2085L48.8522 13.0685C48.9496 13.5552 48.7972 14.058 48.4456 14.4097L47.3965 15.4588V15.9868C47.3965 17.9832 46.3026 19.7779 44.6362 20.7526V22.4935C44.6362 22.9574 44.7999 23.4087 45.0954 23.766L50.9092 30.7412C51.1372 31.015 51.4728 31.1719 51.829 31.1719H61.2369C61.8519 29.4481 63.4841 28.2031 65.4174 28.2031C66.3921 28.2031 67.2878 28.5273 68.0219 29.061C69.5441 26.7817 72.4613 25.2344 75.808 25.2344C76.627 25.2344 77.2924 25.8987 77.2924 26.7188V38.5938C77.2924 39.4138 76.627 40.0781 75.808 40.0781C75.4931 40.0781 75.1827 40.0632 74.8769 40.0369C75.6775 45.0123 77.6521 53.7467 82.1682 60.3165C89.1399 62.5156 94.3696 68.3477 94.9755 75.5806C95.0076 75.9711 94.8839 76.3617 94.6296 76.6618C94.3753 76.963 94.0122 77.1497 93.6205 77.1818L91.851 77.3295C92.0331 78.2607 92.1362 79.2045 92.1362 80.1562C92.1362 88.3409 85.4771 95 77.2924 95C70.6585 95 65.0291 90.6248 63.1324 84.6094H38.0137C36.117 90.6248 30.4888 95 23.8549 95C17.221 95 11.5916 90.6248 9.69607 84.6094H4.04605C2.9614 84.6094 1.94434 84.1879 1.18267 83.4194C0.421013 82.652 0.00525665 81.6338 0.0121231 80.5491C0.0419006 75.9849 0.94902 68.0396 6.20733 62.8065ZM7.52677 59.375C7.52677 60.1939 8.19222 60.8594 9.01115 60.8594H43.1518C43.9696 60.8594 44.6362 60.1939 44.6362 59.375C44.6362 58.5561 43.9696 57.8906 43.1518 57.8906H9.01115C8.19222 57.8906 7.52677 58.5561 7.52677 59.375ZM40.1017 77.1875C39.2794 69.6981 32.3065 63.8281 23.8549 63.8281C15.4022 63.8281 8.42931 69.6981 7.60809 77.1875H40.1017ZM20.8862 80.1562C20.8862 81.793 22.2171 83.125 23.8549 83.125C25.4916 83.125 26.8237 81.793 26.8237 80.1562H20.8862ZM46.2935 62.527L48.6918 72.9543C48.8018 73.6862 49.4191 74.2188 50.159 74.2188H53.1496L49.4214 58.4381C49.3665 58.1151 49.095 57.8906 48.7617 57.8906H47.3312C47.4972 58.3568 47.6038 58.8516 47.6038 59.375C47.6049 60.6051 47.1021 61.7207 46.2935 62.527ZM26.8237 41.5625H21.6971C20.877 41.5625 20.2127 40.8982 20.2127 40.0781C20.2127 39.2581 20.877 38.5938 21.6971 38.5938H26.8237V35.625H3.07365V38.5938H15.9337C16.7526 38.5938 17.418 39.2581 17.418 40.0781C17.418 40.8982 16.7526 41.5625 15.9337 41.5625H3.07365V54.9219H26.8237V41.5625ZM48.7617 54.9219C50.5393 54.9219 52.0477 56.1909 52.3295 57.846L56.2008 74.2188H56.7941C57.164 72.3495 57.8421 70.5685 58.7973 68.9307L55.4174 54.3916C55.2845 53.5864 54.7061 52.9175 53.8562 52.6254L44.5422 49.0542L35.3806 51.3449C35.5638 53.3459 37.2315 54.9219 39.2771 54.9219H48.7617ZM41.7945 18.5558L40.057 16.8172C39.6779 17.0646 39.2587 17.2066 38.8292 17.2959C39.5771 18.1263 40.6664 18.5982 41.7945 18.5558ZM40.183 2.96875C36.9646 2.96875 34.2455 5.68781 34.2455 8.9074C34.2455 11.3092 35.6772 13.4602 37.8946 14.3879C38.142 14.4898 38.3413 14.3971 38.4375 14.3341C38.5349 14.2688 38.6987 14.1199 38.6987 13.8507V10.9129C38.6987 8.98872 40.2644 7.42188 42.1897 7.42188H45.9327C45.2718 4.86431 42.9445 2.96875 40.183 2.96875ZM45.7849 12.8715L45.289 10.3906H42.1897C41.9011 10.3906 41.6674 10.6254 41.6674 10.9129V13.8507C41.6674 13.9664 41.6365 14.0741 41.625 14.1875L44.2765 16.839C44.3727 16.5698 44.4277 16.2835 44.4277 15.9868V14.8438C44.4277 14.4497 44.5846 14.0729 44.8629 13.7946L45.7849 12.8715ZM48.6289 32.6414L42.815 25.6662C42.0752 24.7762 41.6663 23.6492 41.6663 22.4935V21.5303C40.6755 21.5292 39.7066 21.3081 38.8258 20.9015C37.0871 25.83 32.413 40.2167 33.871 48.6614L43.2594 46.3146C43.3087 45.396 43.2583 44.4305 43.1564 43.1671C42.9903 41.1215 42.523 39.108 41.7682 37.1838C41.7018 37.0109 41.6663 36.8276 41.6663 36.6421C41.6663 35.5987 42.2309 34.6308 43.138 34.1177C44.0452 33.6046 45.1642 33.6172 46.0598 34.1555L50.4477 36.7875C50.7031 36.941 51.0077 36.9925 51.2987 36.9341L61.5805 34.8782C61.4442 34.6446 61.3297 34.3995 61.2369 34.1406H51.829C50.5897 34.1406 49.4237 33.5943 48.6289 32.6414ZM65.4174 31.1719C64.5985 31.1719 63.933 31.8385 63.933 32.6562C63.933 33.4752 64.5985 34.1406 65.4174 34.1406C66.2352 34.1406 66.9018 33.4752 66.9018 32.6562C66.9018 31.8385 66.2352 31.1719 65.4174 31.1719ZM74.3237 28.344C71.7649 28.8399 69.8705 30.5855 69.8705 32.6562C69.8705 34.4842 71.348 36.0545 73.452 36.7406C73.4876 36.7486 73.5196 36.7566 73.554 36.7669C73.8037 36.8448 74.0568 36.917 74.3237 36.9685V28.344ZM71.7546 39.2569C70.1832 38.5834 68.8798 37.5366 68.0219 36.2515C67.6818 36.4989 67.3049 36.6925 66.9018 36.8356V46.822C66.9018 47.642 66.2363 48.3063 65.4174 48.3063C64.5973 48.3063 63.933 47.642 63.933 46.822V37.4358L51.8816 39.8456C50.8611 40.0495 49.812 39.8674 48.9198 39.3325L44.7679 36.7245C45.4906 38.73 45.9441 40.8123 46.1148 42.9266C46.2271 44.3102 46.2809 45.4246 46.219 46.5173L54.8676 49.8354C56.7024 50.463 58.0356 52.023 58.3277 53.8143L61.1109 65.7729C61.955 64.8521 62.9045 64.0148 63.933 63.2623V52.0734C63.933 51.2522 64.5973 50.589 65.4174 50.589C66.2363 50.589 66.9018 51.2522 66.9018 52.0734V61.4595C69.1249 60.368 71.6103 59.659 74.2607 59.4369C75.5813 59.3269 76.8801 59.3429 78.1446 59.4735C74.0545 52.2383 72.3777 43.6253 71.7546 39.2569ZM74.5092 62.3941C66.0863 63.1008 59.6254 69.5297 59.4318 77.0627L91.812 74.355C90.3689 66.9595 82.9241 61.7001 74.5092 62.3941ZM74.3237 80.1562C74.3237 81.793 75.6546 83.125 77.2924 83.125C78.9291 83.125 80.2612 81.793 80.2612 80.1562C80.2612 79.492 80.0332 78.8609 79.6335 78.3512L74.6787 78.7658C74.4474 79.1896 74.3237 79.6603 74.3237 80.1562ZM77.2924 92.0312C83.8392 92.0312 89.1674 86.7042 89.1674 80.1562C89.1674 79.2858 89.0357 78.4279 88.8456 77.5815L82.8245 78.0843C83.0707 78.7417 83.2299 79.4358 83.2299 80.1562C83.2299 83.4308 80.5658 86.0938 77.2924 86.0938C74.0179 86.0938 71.3549 83.4308 71.3549 80.1562C71.3549 79.7737 71.3973 79.4003 71.4672 79.035L65.4632 79.5366C65.4518 79.7485 65.4174 79.9363 65.4174 80.1562C65.4174 86.7042 70.7444 92.0312 77.2924 92.0312ZM62.5231 81.6406C62.475 81.1527 62.4487 80.6568 62.4487 80.1562C62.4487 80.0303 62.459 79.9111 62.4613 79.7874L58.1192 80.1505C58.0769 80.1551 58.0345 80.1562 57.9932 80.1562C57.2293 80.1562 56.581 79.571 56.5157 78.7956C56.4699 78.255 56.4619 77.7201 56.4699 77.1875H50.159C47.9382 77.1875 46.0862 75.5932 45.7769 73.5098L43.5378 63.7892C43.4083 63.8006 43.2835 63.8281 43.1506 63.8281H34.4987C39.7066 67.0214 43.1506 72.4801 43.1506 78.6719C43.1506 79.492 42.4863 80.1562 41.6663 80.1562H38.6975C38.6975 80.6568 38.6712 81.1527 38.6231 81.6406H62.5231ZM23.8549 92.0312C30.4017 92.0312 35.7299 86.7042 35.7299 80.1562H29.7924C29.7924 83.4308 27.1283 86.0938 23.8549 86.0938C20.5803 86.0938 17.9174 83.4308 17.9174 80.1562H11.9799C11.9799 86.7042 17.3069 92.0312 23.8549 92.0312ZM3.28898 81.3279C3.48941 81.5295 3.75857 81.6406 4.04605 81.6406H9.08559C9.03749 81.1527 9.01115 80.6568 9.01115 80.1562H6.0424C5.22233 80.1562 4.55802 79.492 4.55802 78.6719C4.55802 72.4801 8.0021 67.0214 13.21 63.8281H9.52999C3.92121 68.1827 3.01066 76.1452 2.98087 80.5697C2.97858 80.8561 3.08854 81.1264 3.28898 81.3279Z" fill="currentColor"/>
</g>
</svg>
