<svg viewBox="0 0 20 18" fill="none" xmlns="http://www.w3.org/2000/svg">
<path d="M14.5835 0C13.6451 0.0145958 12.7272 0.276544 11.9224 0.759393C11.1177 1.24224 10.4546 1.92889 10.0001 2.75C9.54566 1.92889 8.88257 1.24224 8.07783 0.759393C7.27308 0.276544 6.35517 0.0145958 5.41679 0C3.92091 0.0649923 2.51155 0.719378 1.49661 1.82019C0.481678 2.92101 -0.0563308 4.37877 0.000128002 5.875C0.000128002 9.66417 3.98846 13.8025 7.33346 16.6083C8.08031 17.2359 9.02459 17.58 10.0001 17.58C10.9757 17.58 11.9199 17.2359 12.6668 16.6083C16.0118 13.8025 20.0001 9.66417 20.0001 5.875C20.0566 4.37877 19.5186 2.92101 18.5036 1.82019C17.4887 0.719378 16.0793 0.0649923 14.5835 0ZM11.596 15.3333C11.1493 15.7095 10.5841 15.9158 10.0001 15.9158C9.41617 15.9158 8.85098 15.7095 8.40429 15.3333C4.12263 11.7408 1.66679 8.29417 1.66679 5.875C1.60983 4.8206 1.9721 3.78644 2.6746 2.99808C3.37709 2.20972 4.36282 1.73113 5.41679 1.66667C6.47077 1.73113 7.45649 2.20972 8.15899 2.99808C8.86149 3.78644 9.22376 4.8206 9.16679 5.875C9.16679 6.09601 9.25459 6.30798 9.41087 6.46426C9.56715 6.62054 9.77911 6.70833 10.0001 6.70833C10.2211 6.70833 10.4331 6.62054 10.5894 6.46426C10.7457 6.30798 10.8335 6.09601 10.8335 5.875C10.7765 4.8206 11.1388 3.78644 11.8413 2.99808C12.5438 2.20972 13.5295 1.73113 14.5835 1.66667C15.6374 1.73113 16.6232 2.20972 17.3257 2.99808C18.0282 3.78644 18.3904 4.8206 18.3335 5.875C18.3335 8.29417 15.8776 11.7408 11.596 15.33V15.3333Z" fill="currentColor"/>
</svg>
