<svg viewBox="0 0 18 15" fill="none" xmlns="http://www.w3.org/2000/svg">
<path d="M16.1187 8.97883L16.7279 9.41622L16.1187 8.97883ZM16.1187 5.8545L15.5094 6.29188L16.1187 5.8545ZM16.8552 7.41667H16.1052H16.8552ZM1.48647 8.97883L2.09572 8.54145L1.48647 8.97883ZM1.48647 5.8545L0.877209 5.41711L1.48647 5.8545ZM0.75 7.41667H0H0.75ZM1.48647 8.97883L0.87721 9.41622C1.60396 10.4285 2.68795 11.7625 4.01649 12.8503C5.33646 13.931 6.97718 14.8333 8.80258 14.8333V14.0833V13.3333C7.47236 13.3333 6.16231 12.6686 4.96676 11.6897C3.7798 10.7178 2.78354 9.49954 2.09572 8.54145L1.48647 8.97883ZM8.80258 14.0833V14.8333C10.628 14.8333 12.2687 13.931 13.5887 12.8503C14.9172 11.7625 16.0012 10.4285 16.7279 9.41622L16.1187 8.97883L15.5094 8.54145C14.8216 9.49954 13.8254 10.7178 12.6384 11.6897C11.4428 12.6686 10.1328 13.3333 8.80258 13.3333V14.0833ZM16.1187 5.8545L16.7279 5.41711C16.0012 4.40479 14.9172 3.07083 13.5887 1.98305C12.2687 0.902288 10.628 0 8.80258 0V0.75V1.5C10.1328 1.5 11.4428 2.16475 12.6384 3.14364C13.8254 4.11551 14.8216 5.33379 15.5094 6.29188L16.1187 5.8545ZM8.80258 0.75V0C6.97718 0 5.33646 0.902288 4.01649 1.98305C2.68795 3.07083 1.60396 4.40479 0.877209 5.41711L1.48647 5.8545L2.09572 6.29188C2.78354 5.33379 3.7798 4.11551 4.96676 3.14364C6.16231 2.16475 7.47236 1.5 8.80258 1.5V0.75ZM16.1187 8.97883L16.7279 9.41622C17.1841 8.78077 17.6052 8.23801 17.6052 7.41667H16.8552H16.1052C16.1052 7.66793 16.0352 7.80908 15.5094 8.54145L16.1187 8.97883ZM16.1187 5.8545L15.5094 6.29188C16.0352 7.02426 16.1052 7.1654 16.1052 7.41667H16.8552H17.6052C17.6052 6.59532 17.1841 6.05256 16.7279 5.41711L16.1187 5.8545ZM1.48647 8.97883L2.09572 8.54145C1.56996 7.80908 1.5 7.66793 1.5 7.41667H0.75H0C0 8.23801 0.421022 8.78077 0.87721 9.41622L1.48647 8.97883ZM1.48647 5.8545L0.877209 5.41711C0.421022 6.05256 0 6.59532 0 7.41667H0.75H1.5C1.5 7.1654 1.56996 7.02425 2.09572 6.29188L1.48647 5.8545ZM6.30258 7.41667H5.55258C5.55258 9.21159 7.00765 10.6667 8.80258 10.6667V9.91667V9.16667C7.83608 9.16667 7.05258 8.38316 7.05258 7.41667H6.30258ZM8.80258 9.91667V10.6667C10.5975 10.6667 12.0526 9.21159 12.0526 7.41667H11.3026H10.5526C10.5526 8.38316 9.76907 9.16667 8.80258 9.16667V9.91667ZM11.3026 7.41667H12.0526C12.0526 5.62174 10.5975 4.16667 8.80258 4.16667V4.91667V5.66667C9.76907 5.66667 10.5526 6.45017 10.5526 7.41667H11.3026ZM8.80258 4.91667V4.16667C7.00765 4.16667 5.55258 5.62174 5.55258 7.41667H6.30258H7.05258C7.05258 6.45017 7.83608 5.66667 8.80258 5.66667V4.91667Z" fill="currentColor"/>
</svg>
