<svg viewBox="0 0 16 16" fill="none" xmlns="http://www.w3.org/2000/svg">
<path d="M8 7.99996C8.79113 7.99996 9.56448 7.76536 10.2223 7.32583C10.8801 6.88631 11.3928 6.26159 11.6955 5.53069C11.9983 4.79979 12.0775 3.99552 11.9231 3.21959C11.7688 2.44367 11.3878 1.73094 10.8284 1.17153C10.269 0.612119 9.55629 0.231156 8.78036 0.0768149C8.00444 -0.077526 7.20017 0.00168737 6.46927 0.304438C5.73836 0.607188 5.11365 1.11988 4.67412 1.77768C4.2346 2.43547 4 3.20883 4 3.99996C4.00106 5.0605 4.42283 6.0773 5.17274 6.82721C5.92266 7.57713 6.93946 7.9989 8 7.99996ZM8 1.33329C8.52742 1.33329 9.04299 1.48969 9.48152 1.7827C9.92005 2.07572 10.2618 2.4922 10.4637 2.97947C10.6655 3.46674 10.7183 4.00291 10.6154 4.5202C10.5125 5.03748 10.2586 5.51263 9.88562 5.88557C9.51268 6.25851 9.03752 6.51249 8.52024 6.61538C8.00296 6.71828 7.46678 6.66547 6.97951 6.46364C6.49224 6.2618 6.07577 5.92001 5.78275 5.48148C5.48973 5.04295 5.33333 4.52737 5.33333 3.99996C5.33333 3.29271 5.61428 2.61443 6.11438 2.11434C6.61448 1.61424 7.29276 1.33329 8 1.33329Z" fill="currentColor"/>
<path d="M8 9.33374C6.40924 9.3355 4.88414 9.96821 3.75931 11.093C2.63447 12.2179 2.00176 13.743 2 15.3337C2 15.5106 2.07024 15.6801 2.19526 15.8051C2.32029 15.9302 2.48986 16.0004 2.66667 16.0004C2.84348 16.0004 3.01305 15.9302 3.13807 15.8051C3.2631 15.6801 3.33333 15.5106 3.33333 15.3337C3.33333 14.0961 3.825 12.9091 4.70017 12.0339C5.57534 11.1587 6.76232 10.6671 8 10.6671C9.23768 10.6671 10.4247 11.1587 11.2998 12.0339C12.175 12.9091 12.6667 14.0961 12.6667 15.3337C12.6667 15.5106 12.7369 15.6801 12.8619 15.8051C12.987 15.9302 13.1565 16.0004 13.3333 16.0004C13.5101 16.0004 13.6797 15.9302 13.8047 15.8051C13.9298 15.6801 14 15.5106 14 15.3337C13.9982 13.743 13.3655 12.2179 12.2407 11.093C11.1159 9.96821 9.59076 9.3355 8 9.33374Z" fill="currentColor"/>
</svg>
