<svg viewBox="0 0 101 84" fill="none" xmlns="http://www.w3.org/2000/svg">
<path d="M72.7086 57.5543C72.2924 57.5543 71.8742 57.3957 71.556 57.0775L59.9468 45.4723C59.3094 44.8359 59.3094 43.8046 59.9468 43.1672C60.5832 42.5308 61.6155 42.5308 62.2519 43.1672L73.8611 54.7734C74.4975 55.4088 74.4975 56.4411 73.8611 57.0775C73.5429 57.3957 73.1258 57.5543 72.7086 57.5543Z" fill="currentColor"/>
<path d="M58.6713 3.25863C37.3619 3.25863 20.0253 20.5882 20.0253 41.8895C20.0253 63.1908 37.3619 80.5214 58.6713 80.5214C79.9807 80.5214 97.3173 63.1908 97.3173 41.8895C97.3173 20.5882 79.9807 3.25863 58.6713 3.25863ZM58.6713 83.78C53.0146 83.78 47.5267 82.6719 42.3589 80.487C37.369 78.3769 32.8871 75.3566 29.0395 71.5101C25.192 67.6636 22.1697 63.1837 20.0596 58.1958C17.8737 53.0301 16.7656 47.5441 16.7656 41.8895C16.7656 36.2359 17.8737 30.7499 20.0596 25.5842C22.1697 20.5952 25.192 16.1154 29.0395 12.2689C32.8871 8.42234 37.369 5.4021 42.3589 3.29197C47.5267 1.1081 53.0146 0 58.6713 0C64.3279 0 69.8159 1.1081 74.9836 3.29197C79.9736 5.4021 84.4555 8.42234 88.303 12.2689C92.1516 16.1154 95.1728 20.5952 97.284 25.5842C99.4688 30.7499 100.577 36.2359 100.577 41.8895C100.577 47.5441 99.4688 53.0301 97.284 58.1958C95.1728 63.1837 92.1516 67.6636 88.303 71.5101C84.4555 75.3566 79.9736 78.3769 74.9836 80.487C69.8159 82.6719 64.3279 83.78 58.6713 83.78Z" fill="currentColor"/>
<path d="M28.8663 15.4839H12.1344C11.5082 15.4839 11 14.8125 11 13.9839C11 13.1553 11.5082 12.4839 12.1344 12.4839H28.8663C29.4925 12.4839 30 13.1553 30 13.9839C30 14.8125 29.4925 15.4839 28.8663 15.4839Z" fill="currentColor"/>
<path d="M19.8299 29.4839H1.17082C0.524474 29.4839 0 28.8125 0 27.9839C0 27.1553 0.524474 26.4839 1.17082 26.4839H19.8299C20.4763 26.4839 21 27.1553 21 27.9839C21 28.8125 20.4763 29.4839 19.8299 29.4839Z" fill="currentColor"/>
<path d="M17.8583 43.4839H3.14097C2.51071 43.4839 2 42.8125 2 41.9839C2 41.1553 2.51071 40.4839 3.14097 40.4839H17.8583C18.4893 40.4839 19 41.1553 19 41.9839C19 42.8125 18.4893 43.4839 17.8583 43.4839Z" fill="currentColor"/>
<path d="M19.8292 57.4839H1.17082C0.524474 57.4839 0 56.8127 0 55.9834C0 55.156 0.524474 54.4839 1.17082 54.4839H19.8292C20.4763 54.4839 21 55.156 21 55.9834C21 56.8127 20.4763 57.4839 19.8292 57.4839Z" fill="currentColor"/>
<path d="M28.5035 70.48H12.6528C12.0595 70.48 11.5781 69.8086 11.5781 68.98C11.5781 68.1514 12.0595 67.48 12.6528 67.48H28.5035C29.0974 67.48 29.5781 68.1514 29.5781 68.98C29.5781 69.8086 29.0974 70.48 28.5035 70.48Z" fill="currentColor"/>
<path d="M58.6735 10.391C41.2986 10.391 27.163 24.5205 27.163 41.8894C27.163 59.2584 41.2986 73.3889 58.6735 73.3889C76.0485 73.3889 90.1841 59.2584 90.1841 41.8894C90.1841 24.5205 76.0485 10.391 58.6735 10.391ZM58.6735 76.6475C53.9806 76.6475 49.4259 75.7283 45.138 73.9151C40.9975 72.1646 37.2793 69.6585 34.0863 66.4676C30.8934 63.2756 28.3873 59.5584 26.6357 55.4199C24.8226 51.133 23.9023 46.5814 23.9023 41.8894C23.9023 37.1984 24.8226 32.6459 26.6357 28.3599C28.3873 24.2205 30.8934 20.5033 34.0863 17.3123C37.2793 14.1203 40.9975 11.6142 45.138 9.86371C49.4259 8.05055 53.9806 7.13135 58.6735 7.13135C63.3676 7.13135 67.9201 8.05055 72.2091 9.86371C76.3496 11.6142 80.0678 14.1203 83.2608 17.3123C86.4537 20.5033 88.9598 24.2205 90.7114 28.3599C92.5256 32.6459 93.4448 37.1984 93.4448 41.8894C93.4448 46.5814 92.5256 51.133 90.7114 55.4199C88.9598 59.5584 86.4537 63.2756 83.2608 66.4676C80.0678 69.6585 76.3496 72.1646 72.2091 73.9151C67.9201 75.7283 63.3676 76.6475 58.6735 76.6475Z" fill="currentColor"/>
<path d="M58.6735 40.1327C57.7048 40.1327 56.9159 40.9205 56.9159 41.8892C56.9159 42.8579 57.7048 43.6458 58.6735 43.6458C59.6432 43.6458 60.4311 42.8579 60.4311 41.8892C60.4311 40.9205 59.6432 40.1327 58.6735 40.1327ZM58.6735 46.9055C55.9068 46.9055 53.6562 44.6549 53.6562 41.8892C53.6562 39.1236 55.9068 36.874 58.6735 36.874C61.4402 36.874 63.6907 39.1236 63.6907 41.8892C63.6907 44.6549 61.4402 46.9055 58.6735 46.9055Z" fill="currentColor"/>
<path d="M58.6733 40.1619C57.7733 40.1619 57.043 39.4326 57.043 38.5326V25.7163C57.043 24.8152 57.7733 24.0859 58.6733 24.0859C59.5733 24.0859 60.3036 24.8152 60.3036 25.7163V38.5326C60.3036 39.4326 59.5733 40.1619 58.6733 40.1619Z" fill="currentColor"/>
<path d="M58.6733 15.4193C57.7733 15.4193 57.043 14.69 57.043 13.79V8.76066C57.043 7.86166 57.7733 7.13135 58.6733 7.13135C59.5733 7.13135 60.3036 7.86166 60.3036 8.76066V13.79C60.3036 14.69 59.5733 15.4193 58.6733 15.4193Z" fill="currentColor"/>
<path d="M38.7968 23.6502C38.3796 23.6502 37.9625 23.4906 37.6443 23.1724L34.0867 19.6168C33.4503 18.9804 33.4503 17.9491 34.0867 17.3127C34.724 16.6764 35.7554 16.6764 36.3917 17.3127L39.9494 20.8683C40.5857 21.5047 40.5857 22.536 39.9494 23.1724C39.6312 23.4906 39.214 23.6502 38.7968 23.6502Z" fill="currentColor"/>
<path d="M30.563 43.5189H25.5327C24.6327 43.5189 23.9023 42.7896 23.9023 41.8896C23.9023 40.9906 24.6327 40.2603 25.5327 40.2603H30.563C31.4631 40.2603 32.1934 40.9906 32.1934 41.8896C32.1934 42.7896 31.4631 43.5189 30.563 43.5189Z" fill="currentColor"/>
<path d="M35.2392 66.9446C34.822 66.9446 34.4048 66.786 34.0867 66.4679C33.4503 65.8315 33.4503 64.7991 34.0867 64.1638L37.6443 60.6072C38.2807 59.9708 39.313 59.9708 39.9494 60.6072C40.5857 61.2435 40.5857 62.2759 39.9494 62.9122L36.3917 66.4679C36.0736 66.786 35.6564 66.9446 35.2392 66.9446Z" fill="currentColor"/>
<path d="M58.6733 76.6478C57.7733 76.6478 57.043 75.9185 57.043 75.0185V69.9902C57.043 69.0901 57.7733 68.3608 58.6733 68.3608C59.5733 68.3608 60.3036 69.0901 60.3036 69.9902V75.0185C60.3036 75.9185 59.5733 76.6478 58.6733 76.6478Z" fill="currentColor"/>
<path d="M82.1093 66.9446C81.6921 66.9446 81.275 66.786 80.9568 66.4679L77.3992 62.9122C76.7628 62.2759 76.7628 61.2435 77.3992 60.6072C78.0355 59.9708 79.0679 59.9708 79.7042 60.6072L83.2619 64.1638C83.8982 64.7991 83.8982 65.8315 83.2619 66.4679C82.9437 66.786 82.5255 66.9446 82.1093 66.9446Z" fill="currentColor"/>
<path d="M91.817 43.5189H86.7866C85.8866 43.5189 85.1562 42.7896 85.1562 41.8896C85.1562 40.9906 85.8866 40.2603 86.7866 40.2603H91.817C92.717 40.2603 93.4473 40.9906 93.4473 41.8896C93.4473 42.7896 92.717 43.5189 91.817 43.5189Z" fill="currentColor"/>
<path d="M78.5517 23.6502C78.1345 23.6502 77.7173 23.4906 77.3992 23.1724C76.7628 22.536 76.7628 21.5047 77.3992 20.8683L80.9568 17.3127C81.5932 16.6764 82.6255 16.6764 83.2619 17.3127C83.8982 17.9491 83.8982 18.9804 83.2619 19.6168L79.7042 23.1724C79.3861 23.4906 78.9689 23.6502 78.5517 23.6502Z" fill="currentColor"/>
</svg>
