<svg viewBox="0 0 20 19" fill="none" xmlns="http://www.w3.org/2000/svg">
<path d="M12.6008 5.32229L10.1582 0.35369C9.90941 -0.117897 9.21505 -0.117897 8.96623 0.35369L6.52362 5.32229C6.41289 5.5164 6.24614 5.65579 6.02467 5.68315L0.557123 6.48823C0.0308247 6.57161 -0.191942 7.20994 0.196268 7.59946L4.16568 11.4581C4.33112 11.6249 4.38714 11.819 4.35979 12.0405L3.41531 17.5093C3.30458 18.0369 3.8882 18.4538 4.35979 18.2037L9.27107 15.6217C9.46517 15.5109 9.68664 15.5109 9.88074 15.6217L14.7933 18.2037C15.2649 18.4538 15.8199 18.0369 15.7365 17.5093L14.7933 12.0405C14.7647 11.819 14.8207 11.5962 14.9874 11.4581L18.9555 7.59946C19.3438 7.2386 19.1223 6.57161 18.5947 6.48823L13.0998 5.68315C12.8783 5.65579 12.6842 5.5164 12.6008 5.32229Z" fill="#FFD738"/>
</svg>
