<svg viewBox="0 0 94 100" fill="none" xmlns="http://www.w3.org/2000/svg">
<path d="M73.2531 34.2785C73.3168 35.3815 74.2638 36.2212 75.3693 36.1613C76.4735 36.0977 77.3169 35.1519 77.2533 34.0489C76.859 27.2077 73.2731 20.7108 67.1568 15.7536C61.3761 11.0672 53.9834 8.38086 46.8739 8.38086C39.7656 8.38086 32.3729 11.0672 26.591 15.7536C20.4747 20.7108 16.89 27.2077 16.4957 34.0489C16.4308 35.1519 17.2755 36.0977 18.3797 36.1613C18.4184 36.1638 18.4583 36.165 18.497 36.165C19.5501 36.165 20.4335 35.3428 20.4946 34.2785C20.824 28.5752 23.8859 23.1002 29.1164 18.8604C34.1958 14.743 40.669 12.3823 46.8739 12.3823C53.08 12.3823 59.5519 14.743 64.6326 18.8604C69.8631 23.1002 72.925 28.5752 73.2531 34.2785Z" fill="currentColor"/>
<path d="M9.90236 41.2135C11.0078 41.2135 11.905 40.3177 11.905 39.2134C12.2206 37.5764 9.64908 24.8073 22.6341 13.3208C36.6871 0.891027 57.0586 0.893522 71.1104 13.3208C84.0617 24.7786 81.5276 37.6014 81.8395 39.2134C81.8395 40.3177 82.7354 41.2135 83.8421 41.2135C84.9489 41.2135 85.846 40.3177 85.846 39.2134C85.5203 37.5465 88.1929 23.0867 73.7656 10.325C58.2003 -3.44355 35.5392 -3.4398 19.9777 10.325C5.46298 23.1653 8.21919 37.5677 7.89853 39.2134C7.89853 40.3177 8.79564 41.2135 9.90236 41.2135Z" fill="currentColor"/>
<path d="M83.52 55.4539L80.9373 69.8626C80.4082 72.8134 77.5272 74.7898 74.5128 74.2645C71.4821 73.7392 69.4969 70.9181 70.021 67.9897L72.6037 53.5811C73.4609 48.7986 79.8405 47.4698 82.6304 51.45C83.4552 52.6266 83.7708 54.049 83.52 55.4539ZM68.6597 52.8761L66.0782 67.2848C65.6365 69.7465 66.188 72.2332 67.6278 74.2882C72.4316 81.1394 83.3878 78.8985 84.8813 70.5675L87.4641 56.1589C87.9045 53.6971 87.353 51.2104 85.9132 49.1554C81.0857 42.2705 70.1432 44.6025 68.6597 52.8761Z" fill="currentColor"/>
<mask id="mask0_506_2945" style="mask-type:luminance" maskUnits="userSpaceOnUse" x="87" y="57" width="7" height="15">
<path d="M87.9219 57.1318H93.7425V71.2485H87.9219V57.1318Z" fill="white"/>
</mask>
<g mask="url(#mask0_506_2945)">
<path d="M92.0922 57.2006C91.0017 57.0059 89.9624 57.7296 89.7677 58.8176L87.9772 68.8044C87.7576 70.0284 88.6984 71.1588 89.9511 71.1588C90.9031 71.1588 91.7478 70.4788 91.9213 69.5106L93.7105 59.5226C93.9064 58.4346 93.1815 57.3952 92.0922 57.2006Z" fill="currentColor"/>
</g>
<path d="M12.8064 69.8627L10.2248 55.454C9.63216 52.1476 12.2274 49.0944 15.6873 49.0944C18.3263 49.0944 20.6695 50.9498 21.1411 53.5812L23.7226 67.9899C23.9747 69.3948 23.659 70.8172 22.8343 71.9938C20.0306 75.9915 13.661 74.6302 12.8064 69.8627ZM27.6667 67.2836L25.0851 52.8762C23.6016 44.6039 12.6579 42.2706 7.8317 49.1556C6.39059 51.2105 5.84034 53.6972 6.28079 56.159L8.86232 70.5676C9.7744 75.6521 14.7116 79.1095 19.9183 78.2074C25.1276 77.3041 28.585 72.408 27.6667 67.2836Z" fill="currentColor"/>
<path d="M3.97563 58.8176C3.78098 57.7296 2.74039 57.0059 1.65113 57.2006C0.561872 57.3952 -0.163052 58.4346 0.031592 59.5226L1.82207 69.5106C1.9955 70.4788 2.83896 71.1588 3.79097 71.1588C5.04617 71.1588 5.98445 70.0271 5.7661 68.8044L3.97563 58.8176Z" fill="currentColor"/>
<mask id="mask1_506_2945" style="mask-type:luminance" maskUnits="userSpaceOnUse" x="20" y="82" width="39" height="19">
<path d="M20.8125 82.4746H58.6508V100.005H20.8125V82.4746Z" fill="white"/>
</mask>
<g mask="url(#mask1_506_2945)">
<path d="M52.0516 96.0036H41.693C40.3193 96.0036 39.2013 94.9006 39.2013 93.5443C39.2013 92.1893 40.3193 91.0863 41.693 91.0863H52.0516C53.4265 91.0863 54.5445 92.1893 54.5445 93.5443C54.5445 94.9006 53.4265 96.0036 52.0516 96.0036ZM52.0516 87.0849H41.693C39.3635 87.0849 37.3173 88.3102 36.1694 90.1468C29.7224 88.3014 26.0429 85.0324 24.3697 83.1583C23.6323 82.3336 22.3658 82.2612 21.5411 82.9974C20.7151 83.7335 20.6427 84.9975 21.3801 85.8222C23.3628 88.0419 27.7098 91.9223 35.2148 94.0359C35.4681 97.3698 38.2755 100.005 41.693 100.005H52.0516C55.6362 100.005 58.5522 97.1066 58.5522 93.5443C58.5522 89.9821 55.6362 87.0849 52.0516 87.0849Z" fill="currentColor"/>
</g>
</svg>
