<svg viewBox="0 0 60 60" fill="none" xmlns="http://www.w3.org/2000/svg">
<path fill-rule="evenodd" clip-rule="evenodd" d="M58.9639 6.24289C58.6925 6.02483 58.3326 5.91437 57.9821 5.98579L56.2243 6.36287C47.1227 8.31783 37.7241 6.09625 30.4528 0.269466C30.0185 -0.0781032 29.4005 -0.0781032 28.9673 0.269466C21.695 6.09625 12.303 8.31878 3.19478 6.36287C3.19478 6.36287 1.44551 5.98769 1.43789 5.98579C0.705612 5.82867 0 6.40192 0 7.14943V27.2827C0 43.9689 13.0067 58.1249 29.611 59.5105C29.6767 59.5162 29.7424 59.5162 29.8081 59.5105C46.4124 58.1249 59.42 43.9689 59.42 27.2827C59.42 27.2827 59.42 7.22656 59.42 7.14943C59.42 6.78758 59.2353 6.46096 58.9639 6.24289ZM57.0432 27.2827C57.0432 42.7081 45.0449 55.7986 29.71 57.1299C14.3741 55.7986 2.3768 42.7081 2.3768 27.2827V8.6216L2.6958 8.69111C12.1963 10.727 21.9864 8.54923 29.71 2.70626C37.4327 8.54827 47.2237 10.728 56.7242 8.69111L57.0432 8.6216V27.2827Z" fill="currentColor"/>
<path fill-rule="evenodd" clip-rule="evenodd" d="M53.368 11.6304C52.0939 11.7532 50.8797 11.8151 49.7628 11.8151C42.8742 11.8151 36.1657 9.82395 30.3608 6.05592C29.9656 5.80167 29.4619 5.80167 29.0676 6.05592C23.2628 9.82395 16.5533 11.8151 9.66568 11.8151C8.54774 11.8151 7.33363 11.7532 6.05953 11.6304C5.36725 11.5627 4.75781 12.1217 4.75781 12.8149V27.2871C4.75781 41.308 15.6686 53.3605 29.598 54.7251C29.6752 54.7337 29.7533 54.7327 29.8304 54.7251C43.7589 53.3605 54.6706 41.308 54.6706 27.2871V26.1921C54.6706 25.535 54.1383 25.0018 53.4822 25.0018C52.8252 25.0018 52.2938 25.535 52.2938 26.1921V27.2871C52.2938 40.0577 42.3848 51.0418 29.7142 52.3445C17.0427 51.0418 7.13461 40.0577 7.13461 27.2871V14.1071C8.01353 14.1662 8.86103 14.1957 9.66568 14.1957C16.7589 14.1957 23.6732 12.216 29.7142 8.46415C35.7543 12.216 42.6695 14.1957 49.7628 14.1957C50.5665 14.1957 51.4139 14.1662 52.2938 14.1071V16.6715C52.2938 17.3286 52.8252 17.8609 53.4822 17.8609C54.1383 17.8609 54.6706 17.3286 54.6706 16.6715C54.6706 16.6715 54.6706 12.8226 54.6706 12.8149C54.6706 12.1112 54.0583 11.5742 53.368 11.6304Z" fill="currentColor"/>
<path fill-rule="evenodd" clip-rule="evenodd" d="M36.9956 18.9827L25.5753 31.6218L22.3434 28.3318C20.9331 26.8948 18.5487 26.8996 17.1423 28.3318C15.7234 29.7763 15.7234 32.1265 17.1423 33.571C17.1423 33.571 22.1749 38.6941 22.1796 38.6998C24.0336 40.5862 27.1503 40.5319 28.9396 38.5894L42.3624 24.0134C43.7118 22.5507 43.6765 20.2939 42.2824 18.875C41.5702 18.1513 40.6208 17.7676 39.6171 17.7847C38.6087 17.8047 37.6774 18.2304 36.9956 18.9827ZM40.5884 20.5453C41.0826 21.0481 41.096 21.8794 40.616 22.3993C40.616 22.3993 27.2113 36.9544 27.1922 36.9753C26.3152 37.9275 24.7793 37.9533 23.8746 37.0305L18.8363 31.9027C18.3221 31.378 18.3221 30.5248 18.8363 30.0011C19.3324 29.4945 20.1533 29.4945 20.6494 30.0011C20.6494 30.0011 23.8803 33.2892 23.8813 33.2901C24.8154 34.2414 26.399 34.2071 27.2932 33.2216L38.7544 20.5824C38.9924 20.3206 39.3162 20.1711 39.6647 20.1644C40.0637 20.1615 40.3408 20.2939 40.5884 20.5453Z" fill="currentColor"/>
<path d="M54.6659 21.4315C54.6659 21.5096 54.6582 21.5867 54.643 21.6639C54.6278 21.74 54.6049 21.8143 54.5754 21.8867C54.5449 21.9591 54.5087 22.0276 54.4649 22.0924C54.4221 22.1571 54.3726 22.2171 54.3173 22.2733C54.2621 22.3285 54.2021 22.3771 54.1374 22.4209C54.0726 22.4647 54.0041 22.5009 53.9317 22.5304C53.8603 22.5609 53.786 22.5837 53.7089 22.599C53.6327 22.6142 53.5555 22.6218 53.4775 22.6218C53.3994 22.6218 53.3222 22.6142 53.2451 22.599C53.1689 22.5837 53.0947 22.5609 53.0223 22.5304C52.9499 22.5009 52.8814 22.4647 52.8166 22.4209C52.7519 22.3771 52.6919 22.3285 52.6366 22.2733C52.5814 22.2171 52.5328 22.1571 52.489 22.0924C52.4452 22.0276 52.409 21.9591 52.3795 21.8867C52.3491 21.8143 52.3272 21.74 52.3119 21.6639C52.2967 21.5867 52.2891 21.5096 52.2891 21.4315C52.2891 21.3534 52.2967 21.2753 52.3119 21.1992C52.3272 21.122 52.3491 21.0478 52.3795 20.9754C52.409 20.904 52.4452 20.8354 52.489 20.7697C52.5328 20.705 52.5814 20.645 52.6366 20.5897C52.6919 20.5345 52.7519 20.485 52.8166 20.4421C52.8814 20.3983 52.9499 20.3612 53.0223 20.3317C53.0947 20.3022 53.1689 20.2793 53.2451 20.2641C53.3222 20.2488 53.3994 20.2412 53.4775 20.2412C53.5555 20.2412 53.6327 20.2488 53.7089 20.2641C53.786 20.2793 53.8603 20.3022 53.9317 20.3317C54.0041 20.3612 54.0726 20.3983 54.1374 20.4421C54.2021 20.485 54.2621 20.5345 54.3173 20.5897C54.3726 20.645 54.4221 20.705 54.4649 20.7697C54.5087 20.8354 54.5449 20.904 54.5754 20.9754C54.6049 21.0478 54.6278 21.122 54.643 21.1992C54.6582 21.2753 54.6659 21.3534 54.6659 21.4315Z" fill="currentColor"/>
</svg>
